<svg width="96" height="96" viewBox="0 0 96 96" fill="none" xmlns="http://www.w3.org/2000/svg">
<path d="M64 6C64 2.6863 66.7144 -0.0338274 69.9499 0.68176C80.582 3.0332 90.2901 10.85 94.1901 14.3179C95.378 15.3743 96 16.8929 96 18.4826V68C96 76.8366 88.8366 84 80 84C71.1634 84 64 76.8366 64 68V6Z" fill="url(#paint0_linear_4303_1230)"/>
<path d="M64 6C64 2.6863 66.7144 -0.0338274 69.9499 0.68176C80.582 3.0332 90.2901 10.85 94.1901 14.3179C95.378 15.3743 96 16.8929 96 18.4826V68C96 76.8366 88.8366 84 80 84C71.1634 84 64 76.8366 64 68V6Z" fill="url(#paint1_radial_4303_1230)"/>
<path d="M32 28.0019C32 19.1653 39.1634 12.0019 48 12.0019H64V5.18286V68.002C64 76.8385 71.1634 84.002 80 84.002H81H32V91.0851V28.0019Z" fill="url(#paint2_linear_4303_1230)"/>
<path d="M32 28.0019C32 19.1653 39.1634 12.0019 48 12.0019H64V5.18286V68.002C64 76.8385 71.1634 84.002 80 84.002H81H32V91.0851V28.0019Z" fill="url(#paint3_linear_4303_1230)"/>
<path d="M32 28.0019C32 19.1653 39.1634 12.0019 48 12.0019H64V5.18286V68.002C64 76.8385 71.1634 84.002 80 84.002H81H32V91.0851V28.0019Z" fill="url(#paint4_linear_4303_1230)"/>
<path d="M0 44C0 35.1634 7.16345 28 16 28H32V90C32 93.3137 29.2853 96.0329 26.0509 95.3121C15.4691 92.9538 5.73976 85.1508 1.82245 81.6846C0.627073 80.6269 0 79.1027 0 77.5065V44Z" fill="url(#paint5_linear_4303_1230)"/>
<defs>
<linearGradient id="paint0_linear_4303_1230" x1="87" y1="0.5" x2="86.3345" y2="83.9947" gradientUnits="userSpaceOnUse">
<stop stop-color="#29852F"/>
<stop offset="0.674662" stop-color="#136C6C"/>
<stop offset="1" stop-color="#093C41"/>
</linearGradient>
<radialGradient id="paint1_radial_4303_1230" cx="0" cy="0" r="1" gradientUnits="userSpaceOnUse" gradientTransform="translate(87.5 25.5) rotate(167.845) scale(33.2453 90.2231)">
<stop stop-color="#0E5A5D" stop-opacity="0"/>
<stop offset="1" stop-color="#023352"/>
</radialGradient>
<linearGradient id="paint2_linear_4303_1230" x1="51.5" y1="11.9998" x2="51.5" y2="83.9998" gradientUnits="userSpaceOnUse">
<stop stop-color="#88E06C"/>
<stop offset="0.247893" stop-color="#62BE55"/>
<stop offset="0.710083" stop-color="#309C61"/>
<stop offset="1" stop-color="#136C6C"/>
</linearGradient>
<linearGradient id="paint3_linear_4303_1230" x1="46" y1="70.9998" x2="29" y2="75.9998" gradientUnits="userSpaceOnUse">
<stop stop-color="#22918B" stop-opacity="0"/>
<stop offset="1" stop-color="#0E5A5D"/>
</linearGradient>
<linearGradient id="paint4_linear_4303_1230" x1="42.5" y1="26.4998" x2="38.5" y2="14.9998" gradientUnits="userSpaceOnUse">
<stop stop-color="#88E06C" stop-opacity="0"/>
<stop offset="0.578885" stop-color="#8EE686" stop-opacity="0.385944"/>
<stop offset="1" stop-color="#98F0B0"/>
</linearGradient>
<linearGradient id="paint5_linear_4303_1230" x1="25" y1="28" x2="25" y2="95" gradientUnits="userSpaceOnUse">
<stop stop-color="#C8F5B7"/>
<stop offset="0.219806" stop-color="#96EB76"/>
<stop offset="1" stop-color="#52D17C"/>
</linearGradient>
</defs>
</svg>
