<svg width="96" height="96" viewBox="0 0 96 96" fill="none" xmlns="http://www.w3.org/2000/svg">
<path d="M45.7717 40.8913L8 56V64C8 74 13 82 28 88L45.0289 94.8116C46.9362 95.5745 49.0638 95.5745 50.9711 94.8116L68 88C83 82 88 74 88 64V41.2297C88 48.3043 80.8547 53.1419 74.2861 50.5144L50.2283 40.8913C48.7979 40.3192 47.2021 40.3192 45.7717 40.8913Z" fill="url(#paint0_linear_4303_1230)"/>
<path d="M45.7717 40.8913L8 56V64C8 74 13 82 28 88L45.0289 94.8116C46.9362 95.5745 49.0638 95.5745 50.9711 94.8116L68 88C83 82 88 74 88 64V41.2297C88 48.3043 80.8547 53.1419 74.2861 50.5144L50.2283 40.8913C48.7979 40.3192 47.2021 40.3192 45.7717 40.8913Z" fill="url(#paint1_radial_4303_1230)"/>
<path d="M45.7717 20.8913L8 36V62.7703C8 58.6813 10.4895 55.0042 14.2861 53.4856L45.0289 41.1884C46.9362 40.4255 49.0638 40.4255 50.9711 41.1885L81.7139 53.4856C85.5105 55.0042 88 58.6813 88 62.7703V42.7703C88 38.6813 85.5105 35.0042 81.7139 33.4856L50.2283 20.8913C48.7979 20.3192 47.2021 20.3192 45.7717 20.8913Z" fill="url(#paint2_linear_4303_1230)"/>
<path d="M45.7717 20.8913L8 36V62.7703C8 58.6813 10.4895 55.0042 14.2861 53.4856L45.0289 41.1884C46.9362 40.4255 49.0638 40.4255 50.9711 41.1885L81.7139 53.4856C85.5105 55.0042 88 58.6813 88 62.7703V42.7703C88 38.6813 85.5105 35.0042 81.7139 33.4856L50.2283 20.8913C48.7979 20.3192 47.2021 20.3192 45.7717 20.8913Z" fill="url(#paint3_radial_4303_1230)"/>
<path d="M45.0289 1.18845L14.2861 13.4856C10.4895 15.0042 8 18.6813 8 22.7703V42.7703C8 38.6813 10.4895 35.0042 14.2861 33.4856L45.0289 21.1884C46.9362 20.4255 49.0638 20.4255 50.9711 21.1885L81.7139 33.4856C85.5105 35.0042 88 38.6813 88 42.7703V22.7703C88 18.6813 85.5105 15.0042 81.7139 13.4856L50.9711 1.18845C49.0638 0.425535 46.9362 0.425536 45.0289 1.18845Z" fill="url(#paint4_linear_4303_1230)"/>
<defs>
<linearGradient id="paint0_linear_4303_1230" x1="53" y1="97.5" x2="32.5" y2="46.5" gradientUnits="userSpaceOnUse">
<stop stop-color="#FAB500"/>
<stop offset="0.631126" stop-color="#CA6407"/>
<stop offset="1" stop-color="#AE5606"/>
</linearGradient>
<radialGradient id="paint1_radial_4303_1230" cx="0" cy="0" r="1" gradientUnits="userSpaceOnUse" gradientTransform="translate(62.5 96) rotate(-95.8696) scale(53.782 72.5246)">
<stop offset="0.604601" stop-color="#CA6407" stop-opacity="0"/>
<stop offset="1" stop-color="#8E250B"/>
</radialGradient>
<linearGradient id="paint2_linear_4303_1230" x1="87" y1="38.5" x2="11.7834" y2="56.2771" gradientUnits="userSpaceOnUse">
<stop stop-color="#FFCD0F"/>
<stop offset="0.702381" stop-color="#E7A400"/>
<stop offset="1" stop-color="#E67505"/>
</linearGradient>
<radialGradient id="paint3_radial_4303_1230" cx="0" cy="0" r="1" gradientUnits="userSpaceOnUse" gradientTransform="translate(14.5 33) rotate(-20.6375) scale(41.14 10.946)">
<stop stop-color="#CA6407"/>
<stop offset="1" stop-color="#FF921F" stop-opacity="0"/>
</radialGradient>
<linearGradient id="paint4_linear_4303_1230" x1="86.5" y1="19.5" x2="8.5" y2="35" gradientUnits="userSpaceOnUse">
<stop stop-color="#FFE994"/>
<stop offset="0.708374" stop-color="#FFCD0F"/>
<stop offset="0.893135" stop-color="#FFB357"/>
<stop offset="1" stop-color="#FFA43D"/>
</linearGradient>
</defs>
</svg>
