<svg width="96" height="96" viewBox="0 0 96 96" fill="none" xmlns="http://www.w3.org/2000/svg">
<g clip-path="url(#clip0_4303_1230)">
<g clip-path="url(#clip1_4303_1230)">
<path d="M34.7574 64.7574L61.7825 91.7825C67.7672 97.7672 78 93.5286 78 85.065V51C78 47.6863 75.3137 45 72 45H39C35.6863 45 33 47.6863 33 51V60.5147C33 62.106 33.6321 63.6321 34.7574 64.7574Z" fill="url(#paint0_linear_4303_1230)"/>
<path d="M4.21753 16.2175C-1.76713 10.2329 2.47143 0 10.935 0H86C91.5228 0 96 4.47715 96 10V85.065C96 93.5286 85.7671 97.7671 79.7825 91.7825L4.21753 16.2175Z" fill="url(#paint1_linear_4303_1230)"/>
<path d="M4.21753 16.2175C-1.76713 10.2329 2.47143 0 10.935 0H86C91.5228 0 96 4.47715 96 10V85.065C96 93.5286 85.7671 97.7671 79.7825 91.7825L4.21753 16.2175Z" fill="url(#paint2_radial_4303_1230)"/>
<path d="M4.21753 16.2175C-1.76713 10.2329 2.47143 0 10.935 0H86C91.5228 0 96 4.47715 96 10V85.065C96 93.5286 85.7671 97.7671 79.7825 91.7825L4.21753 16.2175Z" fill="url(#paint3_radial_4303_1230)"/>
<path d="M3.65685 15.6569C5.15714 17.1571 7.19198 18 9.31371 18H70C74.4183 18 78 21.5817 78 26V86.6863C78 88.808 78.8429 90.8429 80.3431 92.3431L84 96L0 12L3.65685 15.6569Z" fill="url(#paint4_linear_4303_1230)"/>
<path d="M3.65685 15.6569C5.15714 17.1571 7.19198 18 9.31371 18H70C74.4183 18 78 21.5817 78 26V86.6863C78 88.808 78.8429 90.8429 80.3431 92.3431L84 96L0 12L3.65685 15.6569Z" fill="url(#paint5_radial_4303_1230)"/>
<path d="M3.65685 15.6569C5.15714 17.1571 7.19198 18 9.31371 18H70C74.4183 18 78 21.5817 78 26V86.6863C78 88.808 78.8429 90.8429 80.3431 92.3431L84 96L0 12L3.65685 15.6569Z" fill="url(#paint6_radial_4303_1230)"/>
<path d="M16.2426 46.2426C12.4629 42.4629 15.1399 36 20.4853 36H54C57.3137 36 60 38.6863 60 42V86.6863C60 88.808 60.8429 90.8429 62.3431 92.3432L66 96L16.2426 46.2426Z" fill="url(#paint7_linear_4303_1230)"/>
</g>
</g>
<defs>
<linearGradient id="paint0_linear_4303_1230" x1="62" y1="92.5" x2="71.5" y2="83" gradientUnits="userSpaceOnUse">
<stop stop-color="#EB4824"/>
<stop offset="1" stop-color="#8B1321"/>
</linearGradient>
<linearGradient id="paint1_linear_4303_1230" x1="42" y1="54" x2="96" y2="-3.55481e-06" gradientUnits="userSpaceOnUse">
<stop stop-color="#830B48"/>
<stop offset="0.12047" stop-color="#AA1D2D"/>
<stop offset="0.251128" stop-color="#CA2134"/>
<stop offset="1" stop-color="#CD3E1D"/>
</linearGradient>
<radialGradient id="paint2_radial_4303_1230" cx="0" cy="0" r="1" gradientUnits="userSpaceOnUse" gradientTransform="translate(74.5 68.5) rotate(-90) scale(60.5 14.891)">
<stop stop-color="#830B48"/>
<stop offset="1" stop-color="#CA2134" stop-opacity="0"/>
</radialGradient>
<radialGradient id="paint3_radial_4303_1230" cx="0" cy="0" r="1" gradientUnits="userSpaceOnUse" gradientTransform="translate(16 20.5) scale(77.5 17.7969)">
<stop stop-color="#830B48"/>
<stop offset="1" stop-color="#CA2134" stop-opacity="0"/>
</radialGradient>
<linearGradient id="paint4_linear_4303_1230" x1="74" y1="19.5" x2="33" y2="60.5" gradientUnits="userSpaceOnUse">
<stop stop-color="#FF835C"/>
<stop offset="0.752302" stop-color="#EB4824"/>
<stop offset="1" stop-color="#CA2134"/>
</linearGradient>
<radialGradient id="paint5_radial_4303_1230" cx="0" cy="0" r="1" gradientUnits="userSpaceOnUse" gradientTransform="translate(57 76.5) rotate(-90) scale(43 10.3219)">
<stop stop-color="#CA2134"/>
<stop offset="1" stop-color="#E82C41" stop-opacity="0"/>
</radialGradient>
<radialGradient id="paint6_radial_4303_1230" cx="0" cy="0" r="1" gradientUnits="userSpaceOnUse" gradientTransform="translate(23 39) scale(39.5 9.48173)">
<stop stop-color="#CA2134"/>
<stop offset="1" stop-color="#E82C41" stop-opacity="0"/>
</radialGradient>
<linearGradient id="paint7_linear_4303_1230" x1="36" y1="66" x2="62" y2="40" gradientUnits="userSpaceOnUse">
<stop stop-color="#FF835C"/>
<stop offset="0.230356" stop-color="#FF9C70"/>
<stop offset="1" stop-color="#FFB357"/>
</linearGradient>
<clipPath id="clip0_4303_1230">
<rect width="96" height="96" fill="white"/>
</clipPath>
<clipPath id="clip1_4303_1230">
<rect width="96" height="96" fill="white"/>
</clipPath>
</defs>
</svg>
