<svg width="96" height="96" viewBox="0 0 96 96" fill="none" xmlns="http://www.w3.org/2000/svg">
<path d="M48 96H45.5685C34.9599 96 24.7857 91.7857 17.2843 84.2843L15.2426 82.2426C11.4629 78.4629 14.1399 72 19.4853 72H42C48.6274 72 54 66.6274 54 60V22.6569C54 21.596 54.4214 20.5786 55.1716 19.8284L72.1716 2.82843C73.7337 1.26633 76.2663 1.26633 77.8284 2.82843L94.8284 19.8284C95.5786 20.5786 96 21.596 96 22.6569V48C96 74.5097 74.5097 96 48 96Z" fill="url(#paint0_linear_4303_1230)"/>
<path d="M48 96H45.5685C34.9599 96 24.7857 91.7857 17.2843 84.2843L15.2426 82.2426C11.4629 78.4629 14.1399 72 19.4853 72H42C48.6274 72 54 66.6274 54 60V22.6569C54 21.596 54.4214 20.5786 55.1716 19.8284L72.1716 2.82843C73.7337 1.26633 76.2663 1.26633 77.8284 2.82843L94.8284 19.8284C95.5786 20.5786 96 21.596 96 22.6569V48C96 74.5097 74.5097 96 48 96Z" fill="url(#paint1_radial_4303_1230)"/>
<path d="M28 88H24.3137C22.192 88 20.1571 87.1571 18.6569 85.6569L10.6569 77.6569C5.61714 72.6171 9.18647 64 16.3137 64H25C31.6274 64 37 58.6274 37 52V23.6569C37 22.596 37.4214 21.5786 38.1716 20.8284L53.1932 5.80677C54.7468 4.25316 57.2628 4.24349 58.8283 5.78512L74.8066 21.5198C75.5701 22.2716 76 23.2983 76 24.3698V40C76 66.5097 54.5097 88 28 88Z" fill="url(#paint2_linear_4303_1230)"/>
<path d="M28 88H24.3137C22.192 88 20.1571 87.1571 18.6569 85.6569L10.6569 77.6569C5.61714 72.6171 9.18647 64 16.3137 64H25C31.6274 64 37 58.6274 37 52V23.6569C37 22.596 37.4214 21.5786 38.1716 20.8284L53.1932 5.80677C54.7468 4.25316 57.2628 4.24349 58.8283 5.78512L74.8066 21.5198C75.5701 22.2716 76 23.2983 76 24.3698V40C76 66.5097 54.5097 88 28 88Z" fill="url(#paint3_linear_4303_1230)"/>
<path d="M28 88H24.3137C22.192 88 20.1571 87.1571 18.6569 85.6569L10.6569 77.6569C5.61714 72.6171 9.18647 64 16.3137 64H25C31.6274 64 37 58.6274 37 52V23.6569C37 22.596 37.4214 21.5786 38.1716 20.8284L53.1932 5.80677C54.7468 4.25316 57.2628 4.24349 58.8283 5.78512L74.8066 21.5198C75.5701 22.2716 76 23.2983 76 24.3698V40C76 66.5097 54.5097 88 28 88Z" fill="url(#paint4_radial_4303_1230)"/>
<path d="M31.5061 68.9981L22.4329 71.8209C16.33 73.7195 14.4279 81.4209 18.9426 85.9426L3.15081 70.1508C-0.989399 66.0106 -0.13644 59.0819 4.8843 56.0694L10.2899 52.826C16.314 49.2116 20 42.7015 20 35.6762V27.6569C20 26.596 20.4214 25.5786 21.1716 24.8284L34.1716 11.8284C35.7337 10.2663 38.2663 10.2663 39.8284 11.8284L52.8284 24.8284C53.5786 25.5786 54 26.596 54 27.6569V32V38.4427C54 52.454 44.8849 64.8358 31.5061 68.9981Z" fill="url(#paint5_linear_4303_1230)"/>
<path d="M31.5061 68.9981L22.4329 71.8209C16.33 73.7195 14.4279 81.4209 18.9426 85.9426L3.15081 70.1508C-0.989399 66.0106 -0.13644 59.0819 4.8843 56.0694L10.2899 52.826C16.314 49.2116 20 42.7015 20 35.6762V27.6569C20 26.596 20.4214 25.5786 21.1716 24.8284L34.1716 11.8284C35.7337 10.2663 38.2663 10.2663 39.8284 11.8284L52.8284 24.8284C53.5786 25.5786 54 26.596 54 27.6569V32V38.4427C54 52.454 44.8849 64.8358 31.5061 68.9981Z" fill="url(#paint6_linear_4303_1230)"/>
<defs>
<linearGradient id="paint0_linear_4303_1230" x1="79" y1="2.99999" x2="44" y2="96" gradientUnits="userSpaceOnUse">
<stop stop-color="#0067BF"/>
<stop offset="0.514919" stop-color="#004695"/>
<stop offset="1" stop-color="#163697"/>
</linearGradient>
<radialGradient id="paint1_radial_4303_1230" cx="0" cy="0" r="1" gradientUnits="userSpaceOnUse" gradientTransform="translate(48 40.5) rotate(90) scale(55.5 37.4255)">
<stop offset="0.598981" stop-color="#163697"/>
<stop offset="1" stop-color="#163697" stop-opacity="0"/>
</radialGradient>
<linearGradient id="paint2_linear_4303_1230" x1="56" y1="7" x2="26" y2="96" gradientUnits="userSpaceOnUse">
<stop stop-color="#26CFE8"/>
<stop offset="0.438656" stop-color="#0094F0"/>
<stop offset="1" stop-color="#0067BF"/>
</linearGradient>
<linearGradient id="paint3_linear_4303_1230" x1="29" y1="84.5" x2="7.5" y2="86.5" gradientUnits="userSpaceOnUse">
<stop stop-color="#2052CB" stop-opacity="0"/>
<stop offset="1" stop-color="#163697"/>
</linearGradient>
<radialGradient id="paint4_radial_4303_1230" cx="0" cy="0" r="1" gradientUnits="userSpaceOnUse" gradientTransform="translate(11 45) rotate(90) scale(51 50.7683)">
<stop offset="0.529915" stop-color="#1B44B1"/>
<stop offset="1" stop-color="#2052CB" stop-opacity="0"/>
</radialGradient>
<linearGradient id="paint5_linear_4303_1230" x1="36.9999" y1="13" x2="5.99991" y2="89.5" gradientUnits="userSpaceOnUse">
<stop stop-color="#9FF2E4"/>
<stop offset="0.285144" stop-color="#6CE0FF"/>
<stop offset="0.504963" stop-color="#3BD5FF"/>
<stop offset="1" stop-color="#0FAFFF"/>
</linearGradient>
<linearGradient id="paint6_linear_4303_1230" x1="14.5" y1="70" x2="2.99999" y2="81" gradientUnits="userSpaceOnUse">
<stop stop-color="#29C3FF" stop-opacity="0"/>
<stop offset="1" stop-color="#0078D4"/>
</linearGradient>
</defs>
</svg>
