<svg width="96" height="96" viewBox="0 0 96 96" fill="none" xmlns="http://www.w3.org/2000/svg">
<g clip-path="url(#clip0_4303_1230)">
<g clip-path="url(#clip1_4303_1230)">
<g clip-path="url(#clip2_4303_1230)">
<path d="M51.6858 7.30892L70.2701 3.82436C76.3591 2.68266 82.6193 4.61935 87 9C91.3807 13.3807 93.3173 19.6409 92.1756 25.7299L88.6911 44.3142C88.2343 46.7502 88.2343 49.2498 88.6911 51.6858L92.1756 70.2701C93.3173 76.3591 91.3807 82.6193 87 87C82.6193 91.3807 76.3591 93.3173 70.2701 92.1756L51.6858 88.6911C49.2498 88.2343 46.7502 88.2343 44.3142 88.6911L25.7299 92.1756C19.6409 93.3173 13.3807 91.3807 9 87C4.61935 82.6193 2.68266 76.3591 3.82436 70.2701L7.30892 51.6858C7.76566 49.2498 7.76566 46.7502 7.30892 44.3142L3.82436 25.7299C2.68266 19.6409 4.61935 13.3807 9 9C13.3807 4.61935 19.6409 2.68266 25.7299 3.82436L44.3142 7.30892C46.7502 7.76566 49.2498 7.76566 51.6858 7.30892Z" fill="url(#paint0_linear_4303_1230)"/>
<path d="M51.6858 7.30892L70.2701 3.82436C76.3591 2.68266 82.6193 4.61935 87 9C91.3807 13.3807 93.3173 19.6409 92.1756 25.7299L88.6911 44.3142C88.2343 46.7502 88.2343 49.2498 88.6911 51.6858L92.1756 70.2701C93.3173 76.3591 91.3807 82.6193 87 87C82.6193 91.3807 76.3591 93.3173 70.2701 92.1756L51.6858 88.6911C49.2498 88.2343 46.7502 88.2343 44.3142 88.6911L25.7299 92.1756C19.6409 93.3173 13.3807 91.3807 9 87C4.61935 82.6193 2.68266 76.3591 3.82436 70.2701L7.30892 51.6858C7.76566 49.2498 7.76566 46.7502 7.30892 44.3142L3.82436 25.7299C2.68266 19.6409 4.61935 13.3807 9 9C13.3807 4.61935 19.6409 2.68266 25.7299 3.82436L44.3142 7.30892C46.7502 7.76566 49.2498 7.76566 51.6858 7.30892Z" fill="url(#paint1_radial_4303_1230)"/>
<path d="M51.6858 7.30892L70.2701 3.82436C76.3591 2.68266 82.6193 4.61935 87 9C91.3807 13.3807 93.3173 19.6409 92.1756 25.7299L88.6911 44.3142C88.2343 46.7502 88.2343 49.2498 88.6911 51.6858L92.1756 70.2701C93.3173 76.3591 91.3807 82.6193 87 87C82.6193 91.3807 76.3591 93.3173 70.2701 92.1756L51.6858 88.6911C49.2498 88.2343 46.7502 88.2343 44.3142 88.6911L25.7299 92.1756C19.6409 93.3173 13.3807 91.3807 9 87C4.61935 82.6193 2.68266 76.3591 3.82436 70.2701L7.30892 51.6858C7.76566 49.2498 7.76566 46.7502 7.30892 44.3142L3.82436 25.7299C2.68266 19.6409 4.61935 13.3807 9 9C13.3807 4.61935 19.6409 2.68266 25.7299 3.82436L44.3142 7.30892C46.7502 7.76566 49.2498 7.76566 51.6858 7.30892Z" fill="url(#paint2_radial_4303_1230)"/>
<path d="M88.6911 51.6858L92.1756 70.2701C93.3027 76.2812 91.4297 82.4592 87.167 86.8309C94.1793 79.6387 94.1236 68.1236 87 61L60 34L87 9C91.3806 13.3807 93.3173 19.6409 92.1756 25.7299L88.6911 44.3142C88.2343 46.7502 88.2343 49.2498 88.6911 51.6858Z" fill="url(#paint3_linear_4303_1230)"/>
<path d="M44.3142 88.6911L25.7299 92.1756C19.7257 93.3014 13.555 91.434 9.18411 87.1816C16.3773 94.1792 27.8814 94.1186 35 87L60 62C67.732 54.268 67.732 41.732 60 34L87.0917 61.0917C89.6401 63.6401 91.3772 66.8858 92.084 70.4199C93.281 76.405 91.4076 82.5924 87.0917 86.9083L86.9491 87.0509C82.6003 91.3997 76.3856 93.3223 70.3408 92.1889L51.6858 88.6911C49.2498 88.2343 46.7502 88.2343 44.3142 88.6911Z" fill="url(#paint4_linear_4303_1230)"/>
<path d="M7.30892 44.3142L3.82436 25.7299C2.69856 19.7257 4.56601 13.555 8.81841 9.18411C1.82082 16.3773 1.88136 27.8814 9.00001 35L34 60C41.732 67.732 54.268 67.732 62 60L34.9083 87.0917C32.3599 89.6401 29.1142 91.3772 25.5801 92.084C19.595 93.281 13.4076 91.4076 9.09167 87.0917L8.94912 86.9491C4.60031 82.6003 2.6777 76.3856 3.8111 70.3408L7.30892 51.6858C7.76566 49.2498 7.76566 46.7502 7.30892 44.3142Z" fill="url(#paint5_linear_4303_1230)"/>
<path d="M86.5 35.5L87.5 34.5C94.4036 27.5964 94.4036 16.4036 87.5 9.5L86.5 8.5C79.5964 1.59644 68.4036 1.59642 61.5 8.49998L35.5 34.5C42.4036 27.5964 53.5964 27.5964 60.5 34.5L61.5 35.5C68.4036 42.4036 79.5964 42.4036 86.5 35.5Z" fill="url(#paint6_radial_4303_1230)"/>
<path d="M86.5 35.5L87.5 34.5C94.4036 27.5964 94.4036 16.4036 87.5 9.5L86.5 8.5C79.5964 1.59644 68.4036 1.59642 61.5 8.49998L35.5 34.5C42.4036 27.5964 53.5964 27.5964 60.5 34.5L61.5 35.5C68.4036 42.4036 79.5964 42.4036 86.5 35.5Z" fill="url(#paint7_radial_4303_1230)"/>
<path d="M35.5 34.5L34.5 35.5C27.5964 42.4036 27.5964 53.5964 34.5 60.5L35.5 61.5C42.4036 68.4036 53.5964 68.4036 60.5 61.5L86.5 35.5C79.5964 42.4036 68.4036 42.4036 61.5 35.5L60.5 34.5C53.5964 27.5964 42.4036 27.5964 35.5 34.5Z" fill="url(#paint8_radial_4303_1230)"/>
</g>
</g>
</g>
<defs>
<linearGradient id="paint0_linear_4303_1230" x1="40" y1="7" x2="69" y2="93" gradientUnits="userSpaceOnUse">
<stop stop-color="#0FAFFF"/>
<stop offset="1" stop-color="#1B44B1"/>
</linearGradient>
<radialGradient id="paint1_radial_4303_1230" cx="0" cy="0" r="1" gradientUnits="userSpaceOnUse" gradientTransform="translate(48 51) rotate(90) scale(28)">
<stop offset="0.307413" stop-color="#102784"/>
<stop offset="1" stop-color="#0067BF" stop-opacity="0"/>
</radialGradient>
<radialGradient id="paint2_radial_4303_1230" cx="0" cy="0" r="1" gradientUnits="userSpaceOnUse" gradientTransform="translate(66 24) rotate(144.293) scale(39.4081 26.2721)">
<stop stop-color="#2052CB"/>
<stop offset="1" stop-color="#0078D4" stop-opacity="0"/>
</radialGradient>
<linearGradient id="paint3_linear_4303_1230" x1="92" y1="62" x2="76" y2="32" gradientUnits="userSpaceOnUse">
<stop stop-color="#0D1F69"/>
<stop offset="1" stop-color="#2052CB" stop-opacity="0"/>
</linearGradient>
<linearGradient id="paint4_linear_4303_1230" x1="43" y1="91" x2="62" y2="65" gradientUnits="userSpaceOnUse">
<stop stop-color="#163697"/>
<stop offset="1" stop-color="#2052CB" stop-opacity="0"/>
</linearGradient>
<linearGradient id="paint5_linear_4303_1230" x1="9" y1="39" x2="26" y2="59" gradientUnits="userSpaceOnUse">
<stop stop-color="#2052CB"/>
<stop offset="1" stop-color="#2764E7" stop-opacity="0"/>
</linearGradient>
<radialGradient id="paint6_radial_4303_1230" cx="0" cy="0" r="1" gradientUnits="userSpaceOnUse" gradientTransform="translate(71 14) rotate(90) scale(25 25)">
<stop stop-color="#3BD5FF"/>
<stop offset="0.422696" stop-color="#29C3FF"/>
<stop offset="1" stop-color="#0094F0"/>
</radialGradient>
<radialGradient id="paint7_radial_4303_1230" cx="0" cy="0" r="1" gradientUnits="userSpaceOnUse" gradientTransform="translate(50 52) rotate(-93.1798) scale(36.0555)">
<stop offset="0.373958" stop-color="#2052CB"/>
<stop offset="1" stop-color="#29C3FF" stop-opacity="0"/>
</radialGradient>
<radialGradient id="paint8_radial_4303_1230" cx="0" cy="0" r="1" gradientUnits="userSpaceOnUse" gradientTransform="translate(39 42) rotate(29.9816) scale(30.0167 30.0167)">
<stop offset="0.0785483" stop-color="#9FF0F9"/>
<stop offset="0.318243" stop-color="#6CE0FF"/>
<stop offset="0.636551" stop-color="#3BD5FF"/>
<stop offset="1" stop-color="#0FAFFF"/>
</radialGradient>
<clipPath id="clip0_4303_1230">
<rect width="96" height="96" fill="white"/>
</clipPath>
<clipPath id="clip1_4303_1230">
<rect width="96" height="96" fill="white"/>
</clipPath>
<clipPath id="clip2_4303_1230">
<rect width="96" height="96" fill="white"/>
</clipPath>
</defs>
</svg>
