<svg xmlns="http://www.w3.org/2000/svg" viewBox="0 0 287.99 304"><defs><style>.cls-1{isolation:isolate;}.cls-2{fill:#808184;}.cls-3{fill:#4c4c4b;}.cls-4{fill:#e8530e;}.cls-5{fill:#cf7d00;opacity:0.25;mix-blend-mode:multiply;}.cls-6{fill:#fff;}.cls-7{fill:#868686;}</style></defs><title>tivoli-box</title><g class="cls-1"><g id="Layer_1" data-name="Layer 1"><path class="cls-2" d="M43.3,203.11v20.31H38.5V203.11H32.08v-4.28H49.73v4.28Z"/><path class="cls-2" d="M53.94,223.42V198.83h4.8v24.59Z"/><path class="cls-2" d="M73.73,223.42H70.14L62,198.83h5l4.94,16,4.94-16h5Z"/><path class="cls-2" d="M99.71,220.94a9.56,9.56,0,0,1-13.3,0c-2.5-2.49-2.42-5.56-2.42-9.81s-.08-7.33,2.42-9.81a9.54,9.54,0,0,1,13.3,0c2.49,2.48,2.45,5.56,2.45,9.81S102.2,218.45,99.71,220.94Zm-3.56-16.72a4,4,0,0,0-3.08-1.31A4.07,4.07,0,0,0,90,204.21c-.93,1-1.17,2.18-1.17,6.91S89,217,90,218a4.06,4.06,0,0,0,3.11,1.31A4,4,0,0,0,96.16,218c.93-1,1.2-2.18,1.2-6.91S97.08,205.25,96.16,204.21Z"/><path class="cls-2" d="M107.38,223.42V198.83h4.81v20.31h11.15v4.28Z"/><path class="cls-2" d="M127.55,223.42V198.83h4.81v24.59Z"/><path class="cls-2" d="M161.89,220.83a9.16,9.16,0,0,1-6.94,2.8,9.05,9.05,0,0,1-6.63-2.69c-2.49-2.49-2.42-5.56-2.42-9.81s-.07-7.33,2.42-9.81a9,9,0,0,1,6.63-2.7c5.7,0,8.6,3.73,9.26,7.88h-4.84a4.17,4.17,0,0,0-4.42-3.59,4,4,0,0,0-3.08,1.31c-.94,1-1.17,2.18-1.17,6.91s.23,5.91,1.17,6.94a4,4,0,0,0,3.08,1.28,4.5,4.5,0,0,0,3.42-1.38,4.73,4.73,0,0,0,1.1-3.28v-.93h-4.52v-4h9.29v3.59C164.23,216.9,163.61,219,161.89,220.83Z"/><path class="cls-2" d="M182.48,223.42l-4.8-9.8h-3.46v9.8h-4.8V198.83h9.64c5,0,8,3.42,8,7.53a6.63,6.63,0,0,1-4.48,6.46l5.49,10.6Zm-3.74-20.31h-4.52v6.49h4.52a3.26,3.26,0,1,0,0-6.49Z"/><path class="cls-2" d="M207.2,220.94a9.56,9.56,0,0,1-13.3,0c-2.49-2.49-2.42-5.56-2.42-9.81s-.07-7.33,2.42-9.81a9.54,9.54,0,0,1,13.3,0c2.49,2.48,2.44,5.56,2.44,9.81S209.7,218.45,207.2,220.94Zm-3.56-16.72a4,4,0,0,0-3.07-1.31,4.08,4.08,0,0,0-3.11,1.31c-.93,1-1.17,2.18-1.17,6.91s.24,5.87,1.17,6.91a4.07,4.07,0,0,0,3.11,1.31,4,4,0,0,0,3.07-1.31c.93-1,1.21-2.18,1.21-6.91S204.58,205.25,203.64,204.21Z"/><path class="cls-2" d="M223.54,223.63c-5,0-9-3.42-9-8.64V198.83h4.8v16c0,2.82,1.66,4.52,4.25,4.52s4.29-1.69,4.29-4.52v-16h4.76V215C232.59,220.21,228.58,223.63,223.54,223.63Z"/><path class="cls-2" d="M247.79,214.16h-4.73v9.25h-4.8V198.83h9.54c5.07,0,8.11,3.49,8.11,7.67S252.87,214.16,247.79,214.16Zm-.25-11.05h-4.49v6.73h4.49a3.37,3.37,0,1,0,0-6.73Z"/><path class="cls-2" d="M57.65,263.88v2.61H55a3.32,3.32,0,0,1-2.48-1.35,5.92,5.92,0,0,1-1.29-3.47,20,20,0,0,0-.84-5.19c-.68-1.76-1.74-2.61-3.22-2.61a3.16,3.16,0,0,0-2.71,1.43,5.9,5.9,0,0,0-1.06,3.55H49.2l.1,5A13.18,13.18,0,0,1,46.78,272a7.06,7.06,0,0,1-12.06,0,13.22,13.22,0,0,1-2.51-8.17c0-1-.06-2.65-.13-5h2.22c0,.86,0,2.53.06,5A9.9,9.9,0,0,0,36.24,270a5.56,5.56,0,0,0,4.51,2.53A5.47,5.47,0,0,0,45.27,270a10.11,10.11,0,0,0,1.87-6.17l-.06-2.33h-6c0-6.86,2.06-10.29,6.16-10.29,2.39,0,4.09,1.35,5.09,4.08a24,24,0,0,1,1.06,6c.1,1.43,1.1,2.57,2,2.57ZM40.17,281.6H37.79v-3.19h2.39Zm4,0H41.75v-3.19h2.39Z"/><path class="cls-2" d="M61.35,266.49H56.94v-2.61h4.42Z"/><path class="cls-2" d="M65.19,266.49H60.77v-2.61h4.42Z"/><path class="cls-2" d="M71.19,261.18c0,3.27-1.55,5.31-4.38,5.31h-2.1v-2.61h2.06c1.26,0,2.19-.94,2.19-2.78,0-2.57,0-6.09-.06-10.5,0-5.1-.06-8.62-.06-10.54h2.22c0,1.88,0,5.39.06,10.58C71.15,255.05,71.19,258.57,71.19,261.18Z"/><path class="cls-2" d="M90.43,266.49h-4.9c-1,5.06-3.93,8.41-8,8.86-.19-.53-.52-1.35-.94-2.53a5.79,5.79,0,0,0,4.22-1.76,9.75,9.75,0,0,0,2.45-4.57h-2.9a4.15,4.15,0,0,1-3.61-2.12,9.29,9.29,0,0,1-1.32-5.19,8.87,8.87,0,0,1,2-6,4.54,4.54,0,0,1,3.45-1.63c3.35,0,5,2.16,5,6.45v5.92h4.55Zm-6.77-2.61v-6.82c0-2.41-.93-3.64-2.58-3.64a2.57,2.57,0,0,0-2.19,1.39A7.45,7.45,0,0,0,77.83,259c0,2.74,1.19,4.9,3.09,4.9Z"/><path class="cls-2" d="M106.26,263.88v2.61h-3.35A9.88,9.88,0,0,1,98,265.1a9.7,9.7,0,0,1-4.87,1.39H89.5v-2.61h3.77a12.94,12.94,0,0,0,2.74-.2,9.45,9.45,0,0,1-2.71-4,11,11,0,0,1-.77-4,8,8,0,0,1,1.64-5.31,5,5,0,0,1,7.7,0,7.82,7.82,0,0,1,1.68,5.31,11,11,0,0,1-.77,4,9.45,9.45,0,0,1-2.71,4,13,13,0,0,0,2.74.2Zm-5-8.13a6.75,6.75,0,0,0-.81-3.47A2.77,2.77,0,0,0,98,250.72a2.72,2.72,0,0,0-2.39,1.55,6.75,6.75,0,0,0-.81,3.47,8.34,8.34,0,0,0,1.39,4.78c.74,1.18,1.35,1.76,1.84,1.76s1.13-.57,1.87-1.76A8.82,8.82,0,0,0,101.23,255.75Zm-2-10.21H96.81v-3.14H99.2Z"/><path class="cls-2" d="M110.13,266.49h-4.42v-2.61h4.42Z"/><path class="cls-2" d="M123.31,266.49h-2.87a2.93,2.93,0,0,1-2.45-1.55,5.64,5.64,0,0,1-.81-1.76,4.54,4.54,0,0,1-4,3.31h-4.22v-2.61h3.58a2.62,2.62,0,0,0,1.68-.61,2.77,2.77,0,0,0,1-2.25c.06.65.06-2.49,0-9.43h2.22c0,2.61,0,5.19.06,7.76a5.8,5.8,0,0,0,1,3.43,2.3,2.3,0,0,0,1.77,1.1h3.1v2.61Zm-7.54,6h-2.42v-3.14h2.42Zm3.93,0h-2.39v-3.14h2.39Z"/><path class="cls-2" d="M127,266.49h-4.42v-2.61H127Z"/><path class="cls-2" d="M134.4,261.18c0,3.27-1.55,5.31-4.38,5.31h-3.58v-2.61H130c1.26,0,2.19-.94,2.19-2.78,0,.37,0-2.78-.1-9.52h2.22C134.37,258,134.4,261.22,134.4,261.18Zm-3.93-12.91h-2.39v-3.14h2.39Zm4,0H132v-3.14h2.39Z"/><path class="cls-2" d="M158.68,266.49h-3.26c-2.32,0-3.45-1.51-3.42-4.49h-4.74c-2.45,0-3.67-2-3.67-5.84a9.33,9.33,0,0,1,1.58-5.88,3.78,3.78,0,0,1,3.06-1.67,4.12,4.12,0,0,1,3.55,2.33h.06v-2h2.22v12.91c0,1.35.45,2,1.35,2h3.26Zm-6.8-7,0-6c-.77-1.67-1.77-2.53-3-2.53a2.29,2.29,0,0,0-2,1.35,7.57,7.57,0,0,0-.9,4.08,6.25,6.25,0,0,0,.26,2,1.51,1.51,0,0,0,1.55,1.1Zm-3.51-14.17H146v-3.19h2.39Zm3.93,0h-2.39v-3.19h2.39Z"/><path class="cls-2" d="M162.51,266.49H158.1v-2.61h4.42Z"/><path class="cls-2" d="M166.35,266.49h-4.42v-2.61h4.42Z"/><path class="cls-2" d="M180,266.49H165.67l0-2.61h4.84a9.51,9.51,0,0,1-1.64-5.55A8,8,0,0,1,170.6,253a4.82,4.82,0,0,1,3.74-2,5.15,5.15,0,0,1,4.51,2.65l-1.42,1.43a3.41,3.41,0,0,0-3-1.67,2.67,2.67,0,0,0-2,1.1,6,6,0,0,0-1.29,4.17c0,3.06,1.81,5.15,4,5.15h4Z"/><path class="cls-2" d="M199.33,266.49h-4.9c-1,5.06-3.93,8.41-8,8.86-.19-.53-.52-1.35-.94-2.53a5.79,5.79,0,0,0,4.22-1.76,9.75,9.75,0,0,0,2.45-4.57h-2.9a4.15,4.15,0,0,1-3.61-2.12,9.29,9.29,0,0,1-1.32-5.19,8.87,8.87,0,0,1,2-6,4.54,4.54,0,0,1,3.45-1.63c3.35,0,5,2.16,5,6.45v5.92h4.55Zm-6.77-2.61v-6.82c0-2.41-.93-3.64-2.58-3.64a2.57,2.57,0,0,0-2.19,1.39,7.45,7.45,0,0,0-1.06,4.17c0,2.74,1.19,4.9,3.09,4.9Z"/><path class="cls-2" d="M202.87,266.49h-4.42v-2.61h4.42Z"/><path class="cls-2" d="M219.93,266.49H216c-.87,2.49-2.45,3.72-4.77,3.72s-3.84-1.23-4.84-3.72h-4.16v-2.61h3.48c0-.45-.06-.9-.06-1.35,0-4.74,2-7.64,5.35-7.64a4.71,4.71,0,0,1,4.13,2.37,9.37,9.37,0,0,1,1.45,5.27c0,.45,0,.9,0,1.35h3.29Zm-5.58-4a7.35,7.35,0,0,0-1-4.08,2.66,2.66,0,0,0-2.22-1.27,2.49,2.49,0,0,0-2.19,1.27,7.67,7.67,0,0,0-.9,4.08,7,7,0,0,0,1,4,2.71,2.71,0,0,0,2.22,1.31,2.52,2.52,0,0,0,2.16-1.31A7.61,7.61,0,0,0,214.35,262.53Z"/><path class="cls-2" d="M238.79,266.49H219.25l0-2.61H233a14,14,0,0,0-2-7.47c-1.19-1.8-2.58-2.7-4.19-2.7a7.76,7.76,0,0,0-4.45,1.59l-.94-2.41a10.51,10.51,0,0,1,5.22-1.72,7,7,0,0,1,6.45,4,21.26,21.26,0,0,1,2.19,8.74h3.45Zm-11.06,6h-2.39v-3.14h2.39Z"/><path class="cls-2" d="M242.49,266.49h-4.42v-2.61h4.42Z"/><path class="cls-2" d="M255.9,258.81c0,4.78-2,7.68-5.32,7.68h-9v-2.61h4.67a9.52,9.52,0,0,1-1.32-5.06c0-4.74,2-7.68,5.38-7.68a4.8,4.8,0,0,1,4.16,2.45A9.38,9.38,0,0,1,255.9,258.81Zm-2.19,0a7.21,7.21,0,0,0-1-4,2.71,2.71,0,0,0-2.22-1.31,2.52,2.52,0,0,0-2.16,1.31,7.4,7.4,0,0,0-.93,4,7,7,0,0,0,1,4,2.71,2.71,0,0,0,2.22,1.31,2.49,2.49,0,0,0,2.16-1.31A7.4,7.4,0,0,0,253.71,258.77Z"/><rect class="cls-3" x="188.51" y="41.53" width="24.17" height="23.58"/><rect class="cls-3" x="74.27" y="41.53" width="121.78" height="23.58"/><polygon class="cls-3" points="108.25 166.12 178.54 166.12 178.54 142.53 143.34 141.02 108.25 142.53 108.25 166.12"/><path class="cls-4" d="M150.4,139l-11.6-25h.87L147,86.11l43.2,5.24V114l-43.34,1.4L158.55,139Z"/><polygon class="cls-5" points="162.63 114.9 169.95 114.66 167.8 88.62 162.27 87.97 162.63 114.9"/><polygon class="cls-6" points="212.69 65.11 143.2 50.27 143.2 22.4 212.69 40.05 212.69 65.11"/><polygon class="cls-7" points="143.34 50.27 74.29 65.11 74.29 40.05 143.34 22.4 143.34 50.27"/><polygon class="cls-6" points="178.46 142.55 143.2 145.97 143.2 171.02 178.46 167.6 178.46 142.55"/><polygon class="cls-7" points="108.15 142.55 143.34 145.97 143.34 171.02 108.15 167.6 108.15 142.55"/><rect class="cls-6" x="143.2" y="46.44" width="21.98" height="118.43"/><rect class="cls-7" x="121.81" y="46.44" width="21.53" height="118.43"/></g></g></svg>